<mxfile host="app.diagrams.net" modified="2023-12-27T13:06:55.027Z" agent="Mozilla/5.0 (Windows NT 10.0; Win64; x64) AppleWebKit/537.36 (KHTML, like Gecko) Chrome/120.0.0.0 Safari/537.36" etag="mnb73GFdhi2HwtVwIFJc" version="22.1.12" type="github">
  <diagram name="Page-1" id="tQps2n62HzPpHz3keGnB">
    <mxGraphModel dx="2541" dy="980" grid="1" gridSize="10" guides="1" tooltips="1" connect="1" arrows="1" fold="1" page="1" pageScale="1" pageWidth="827" pageHeight="1169" math="0" shadow="0">
      <root>
        <mxCell id="0" />
        <mxCell id="1" parent="0" />
        <mxCell id="Z2aWivUbkIMFIZujtj76-1" value="" style="image;aspect=fixed;html=1;points=[];align=center;fontSize=12;image=img/lib/azure2/networking/DNS_Zones.svg;" vertex="1" parent="1">
          <mxGeometry x="360" y="40" width="64" height="64" as="geometry" />
        </mxCell>
        <mxCell id="Z2aWivUbkIMFIZujtj76-2" value="" style="endArrow=classic;html=1;rounded=0;" edge="1" parent="1">
          <mxGeometry width="50" height="50" relative="1" as="geometry">
            <mxPoint x="400" y="120" as="sourcePoint" />
            <mxPoint x="400" y="240" as="targetPoint" />
            <Array as="points">
              <mxPoint x="400" y="180" />
            </Array>
          </mxGeometry>
        </mxCell>
        <mxCell id="Z2aWivUbkIMFIZujtj76-3" value="" style="endArrow=classic;html=1;rounded=0;" edge="1" parent="1">
          <mxGeometry width="50" height="50" relative="1" as="geometry">
            <mxPoint x="380" y="240" as="sourcePoint" />
            <mxPoint x="380" y="120" as="targetPoint" />
          </mxGeometry>
        </mxCell>
        <mxCell id="Z2aWivUbkIMFIZujtj76-4" value="&lt;u&gt;&lt;b&gt;&lt;font color=&quot;#3333ff&quot;&gt;www.foobar.com&lt;/font&gt;&lt;/b&gt;&lt;/u&gt;" style="rounded=1;whiteSpace=wrap;html=1;" vertex="1" parent="1">
          <mxGeometry x="140" y="130" width="200" height="60" as="geometry" />
        </mxCell>
        <mxCell id="Z2aWivUbkIMFIZujtj76-5" value="&lt;b&gt;&lt;font style=&quot;font-size: 16px;&quot;&gt;8.8.8.8&lt;/font&gt;&lt;/b&gt;" style="text;html=1;align=center;verticalAlign=middle;resizable=0;points=[];autosize=1;strokeColor=none;fillColor=none;" vertex="1" parent="1">
          <mxGeometry x="424" y="145" width="70" height="30" as="geometry" />
        </mxCell>
        <mxCell id="Z2aWivUbkIMFIZujtj76-6" value="" style="sketch=0;pointerEvents=1;shadow=0;dashed=0;html=1;strokeColor=none;labelPosition=center;verticalLabelPosition=bottom;verticalAlign=top;align=center;fillColor=#505050;shape=mxgraph.mscae.intune.user_group" vertex="1" parent="1">
          <mxGeometry x="364" y="260" width="50" height="37" as="geometry" />
        </mxCell>
        <mxCell id="Z2aWivUbkIMFIZujtj76-7" value="" style="shape=mxgraph.signs.tech.computer;html=1;pointerEvents=1;fillColor=#000000;strokeColor=none;verticalLabelPosition=bottom;verticalAlign=top;align=center;" vertex="1" parent="1">
          <mxGeometry x="340" y="250" width="98" height="98" as="geometry" />
        </mxCell>
        <mxCell id="Z2aWivUbkIMFIZujtj76-8" value="&lt;b&gt;&lt;font style=&quot;font-size: 14px;&quot;&gt;User&lt;/font&gt;&lt;/b&gt;" style="text;html=1;align=center;verticalAlign=middle;resizable=0;points=[];autosize=1;strokeColor=none;fillColor=none;" vertex="1" parent="1">
          <mxGeometry x="360" y="288" width="50" height="30" as="geometry" />
        </mxCell>
        <mxCell id="Z2aWivUbkIMFIZujtj76-9" value="" style="endArrow=classic;html=1;rounded=0;" edge="1" parent="1">
          <mxGeometry width="50" height="50" relative="1" as="geometry">
            <mxPoint x="400" y="440" as="sourcePoint" />
            <mxPoint x="400" y="360" as="targetPoint" />
          </mxGeometry>
        </mxCell>
        <mxCell id="Z2aWivUbkIMFIZujtj76-10" value="" style="endArrow=classic;html=1;rounded=0;" edge="1" parent="1">
          <mxGeometry width="50" height="50" relative="1" as="geometry">
            <mxPoint x="360" y="360" as="sourcePoint" />
            <mxPoint x="360" y="440" as="targetPoint" />
          </mxGeometry>
        </mxCell>
        <mxCell id="Z2aWivUbkIMFIZujtj76-12" value="" style="image;aspect=fixed;html=1;points=[];align=center;fontSize=12;image=img/lib/azure2/general/File.svg;" vertex="1" parent="1">
          <mxGeometry x="290" y="370" width="40.58" height="50" as="geometry" />
        </mxCell>
        <mxCell id="Z2aWivUbkIMFIZujtj76-13" value="&lt;b&gt;&lt;font style=&quot;font-size: 14px;&quot;&gt;8.8.8.8&lt;/font&gt;&lt;/b&gt;" style="text;html=1;align=center;verticalAlign=middle;resizable=0;points=[];autosize=1;strokeColor=none;fillColor=none;" vertex="1" parent="1">
          <mxGeometry x="425" y="388" width="70" height="30" as="geometry" />
        </mxCell>
        <mxCell id="Z2aWivUbkIMFIZujtj76-15" value="" style="shape=image;verticalLabelPosition=bottom;labelBackgroundColor=default;verticalAlign=top;aspect=fixed;imageAspect=0;image=data:image/png,iVBORw0KGgoAAAANSUhEUgAAAn0AAAIjCAYAAAB2961KAAAAAXNSR0IArs4c6QAAAARnQU1BAACxjwv8YQUAAAAJcEhZcwAADsMAAA7DAcdvqGQAAD/zSURBVHhe7d0JnF5lfejx/ySZTDJJJttkX8hOQtgTAgrILqBgKy5Uq0IVtV733lvt7Sa1tra32ku11n2jXi0i1AIqgmUHIQlryA5ZJ5Nl9v3d3/s+7zzjJGGWdznnvM/y+/IZ5/wP6gfeSTg/znOWqmyOAAAAwGlj9HcAAAA4jOgDAADwANEHAADgAaIPAADAA0QfAACAB4g+AAAADxB9AAAAHiD6AAAAPED0AQAAeIDoAwAA8ADRBwAA4AGiDwAAwANEHwAAgAeIPgAAAA8QfQAAAB6oyubobQDASXoTTdKTbM59z33lvvclW3PfW/LfY6k2iSXbZWL1NKkZNz33fYbUVs/U3+tl0vj6/Pfa8bP0/xsAVA7RBwDHUTG3p/W/c18Pyr7WR/Xe8i2dcZksm3mlLJ1+eT4KASBqRB8A77X0viIH2h+X/a2PyMGOp/Xe8Cya9jo5ZfolsnjaxTKzdoXeCwDhIvoAeOlI1wuyp/UhaezcKIc7n9d7ozev7hxZULdBls64XOZOOVvvBYDgEX0AvNLSu1teaPyhbD92t2Szab238qqqxsqa2TfI2fNvkpm1K/VeAAgO0QfAC93xw/J84/dl27G7JJHq1nvNM37cZDlt9tvknPl/JJNr5um9AFA+og+A0+KpLnn+0Hdl69E783ff2kLd9bt2zjvknAUfkJpxU/ReACgd0QfAWc8e+o5sPXKHdMQO6D32mTphsayde6OsW3CL3gMApSH6ADinpXeXPLrn83KoY5PeY78FU8+TS5b9tcysXaX3AEBxiD4ATtnd/Et5Yt8/Snf8iN7jjsk1c+WiJZ+VlfVv0nsAoHBEHwBnPHPgK7Lx4Nf05K4Niz4q5y/+hJ4AoDBEHwAn3L/zT2R38y/05L6V9W+Wa079Zz0BwOiIPgDWu+PFG+RY91Y9+WP25LVy41l36wkARkb0AbDatzaeJ/Fkp578U1NdJx/a4M4NKwDCQ/QBsNZXnzxVb+HjF+7UWwAwtDH6OwBYheA7EZ8HgNEQfQCsQ+AMjc8FwEiIPgBWIWxGxucDYDhEHwBrEDSF4XMCMBSiD4AVCJnifPVJXtcG4EREHwDjEXylqCL8AJyA6ANgNIKvHIQfgEFEHwBjEXxBIPwA9CP6ABiJ4AsS4QeA6ANgIIIvDIQf4DuiD4BRCL4wEX6Az4g+AMYg+KJQJV95cqXeBuATog+AEQi+6FTl/tFP+AH+IfoAVBzBFz3CD/AP0Qegogi+yiH8AL8QfQAqhuCrPMIP8AfRB6AiCD5zEH6AH4g+AJEj+MyTD78nVugJgIuIPgCRIvjMVVU1lvADHEb0AYgMwWc+wg9wF9EHIBIEnz0IP8BNRB+A0BF89iH8APcQfQBCRfDZi/AD3EL0AQgNwWc/wg9wB9EHIBQEnztU+P3LE8v1BMBWRB+AwBF87hlTNY7wAyxH9AEIFMHnLsIPsBvRByAwBJ/7CD/AXkQfgEAQfP4g/AA7EX0AyuZz8F1z6r/oLb8QfoB9iD4AZfE9+FbWX+N5+C3TEwDTEX0ASkbwXZPf9jv8qgk/wBJEH4CSEHz9wTeA8CP8ANMRfQCKRvCdGHwDCD/CDzAZ0QegKATf0ME3gPAj/ABTEX0ACkbwjRx8Awg/wg8wEdEHoCAEX2HBN4DwI/wA0xB9AEZF8BUXfAN8D7/bnliqJwAmIPoAjIjgKy34BvgcfmOrxhN+gEGIPgDDIvjKC74BhB/hB5iA6AMwJIIvmOAbQPgRfkClEX0AXoPgCzb4BhB+hB9QSUQfgBMQfOEE3wDCj/ADKoXoA/A7BF+4wTeA8CP8gEog+gDkEXzRBN8A78Pv8SV6AhAVog8AwRdx8A3wOvzG1BB+QMSIPsBzBF9lgm8A4Uf4AVEh+gCPEXyVDb4BhB/hB0SB6AM8RfCZEXwDCD/CDwgb0Qd4iOAzK/gGEH6EHxAmog/wDMFnZvANIPwIPyAsRB/gEYLP7OAbQPgRfkAYiD7AEwSfHcE3gPAj/ICgEX2ABwg+u4JvAOFH+AFBIvoAxxF8dgbfAMKP8AOCQvQBDiP47A6+AYQf4QcEgegDHEXwuRF8Awg/wg8oF9EHOIjgcyv4BhB+hB9QDqIPcAzB52bwDSD8CD+gVEQf4BCCz+3gG+B9+D2xVE8AikH0AY4g+PwIvgFeh1/VeMIPKAHRBziA4PMr+AYQfoQfUAyiD7Acwedn8A0g/Ag/oFBEH2Axgs/v4Bvgc/jFkm1y64NVegIwEqIPsBTBR/Adz8fwi6c6JJb7Ugg/YHREH2Ahgo/gG4pP4ZfOxKUv1aanfoQfMDKiD7AMwUfwjcSX8FPBl84k9DSI8AOGR/QBFiH4CL5CuB5+sVS7xFOdenotwg8YGtEHWILgI/iK4Wr4qWVddfPGaAg/4LWIPsACBB/BVwoXw68v1SrpbFJPIyP8gBMRfYDhCD6CrxwuhV//sm6XngpD+AGDiD7AYAQfwRcEF8IvlYlJX7JVT8Uh/IB+RB9gKIKP4AuS7eEXS7VJJpvSU/EIP4DoA4xE8BF8YbA1/FTwFbusOxTCD74j+gDDEHwEX5hsC79Upk/6Crhbt1CEH3xG9AEGIfgIvijYE37ZfPCVs6w7FMIPviL6AEMQfARflGwIPxV8iXS3noJF+MFHRB9gAIKP4KsEk8NPLeuqa/nCRPjBN0QfUGEEH8FXSWaGn1rWbZVMNq3n8BB+8AnRB1QQwUfwmcC08Otf1u3RU/gIP/iC6AMqhOAj+ExiSvglM735V61FjfCDD4g+oAIIPoLPRJUOv6xkJJZsk2w2o/dEi/CD64g+IGIEH8FnskqGnwq+KJd1h0L4wWVEHxAhgo/gs0Elwi+Zi71S360bNMIPriL6gIgQfASfTaIMv2w2LX2pNsnm/jAF4QcXEX1ABAg+gs9GUYWfCr5kuldP5iD84BqiDwgZwUfw2Szs8FNv3DBlWXcohB9cQvQBISL4CD4XhBV+allX3bxhOsIPriD6gJAQfASfS8IIv/yybqZPT2Yj/OACog8IAcFH8LkoyPAzfVl3KIQfbEf0AQEj+Ag+lwURfplsyopl3aEQfrAZ0QcEiOAj+HxQbvjFLFrWHQrhB1sRfUBACD6Czyelhl8i3SV9lp7lOx7hBxsRfUAACD6Cz0fFhl8mm3Qi+AYQfrAN0QeUieAj+HxWTPip4EtlYnpyA+EHm1Rlc/Q2gCL5Hny142foyS4L6jboLfMc6tyot+zSm2iV+3d+Uk+vFU91SnfiiJ7cc+tVHEphPqIPKJHPwWez8xd/XDYs+piezLPx4L/KMwe+qic3qGXdrnijpDJxvcdNhB9Mx/IuUAKCDyhc/7Ku28GnsNQL0xF9QJEIPqBwalk3lmrXk/sIP5iM6AOKQPABhUtnE/ln8vmG8IOpiD6gQAQfUBz11g0flnWHQvjBREQfUACCDyhOPNUhsdyXzwg/mIboA0ZB8AHFSWfi0ufhsu5QCD+YhOgDRkDwAcVTwZfOJPQEwg+mIPqAYRB8QPHUnbrqjl2ciPCDCYg+YAgEH1A8tayrbt7A0Ag/VBrRB5yE4ANKk1/WzSb1hKEQfqgkog84DsEHlIZl3cIRfqgUog/QCD6gNKlMTPqSrXpCIQg/VALRB+QQfEDp1Fs3MtmUnlAowg9RI/rgPYIPKJ0KvniqS08oFuGHKBF98BrBB5QuleljWTcAhB+iQvTBWwQfUJ6+pFrWTesJ5SD8EAWiD14i+IDyqDN8iXS3nhAEwg9hI/rgHYIPKE9+WTfFsm4YCD+EieiDVwg+oFzZ/Fm+bDajZwSN8ENYiD54g+ADyqeu40uke/SEsBB+CAPRBy8QfED5kpneXPS16AlhI/wQNKIPziP4gPJlJSOxZFvue1bvQRQIPwSJ6IPTCD4gGCr4WNatDMIPQSH64CyCDwhGMhd7vSzrVhThhyAQfXASwQcEQy3r9qXa9IRKIvxQLqIPziH4gOCox7Mk0716QqURfigH0QenEHxAcNSyLu/WNQ/hh1IRfXAGwQcEJ5tNE3wGI/xQCqIPTiD4gGCp6/iSmT49wUSEH4pF9MF6BB8QrES6m7N8liD8UAyiD1Yj+IBgZbKp/DP5YA/CD4Ui+mAtgg8IXoxlXSsRfigE0QcrEXxA8BLpLunjLJ+1CD+MhuiDdQg+IHhqWZfgsx/hh5EQfbAKwQeEQ924kcrE9ASbEX4YDtEHaxB8QDjUsm4s1a4nuIDww1CIPliB4APCkckmeTyLowg/nIzog/EIPiA86jq+VCauJ7iG8MPxiD4YjeADwhNPdbKs6wHCDwOIPhiL4APCk84mpC/Fsq4vCD8oRB+MRPAB4VJv3UhnEnqCDwg/EH0wDsEHhCue6pBY7gv+Ifz8RvTBKAQfEK78si5363qN8PMX0QdjEHxA+FTwpbNJPcFXhJ+fiD4YgeADwqeWddUdu4BC+PmH6EPFEXxA+NKZuPQmm/UE9CP8/EL0oaIIPiAafak2yWTTegIGEX7+IPpQMQQfEA31AGaWdTESws8PRB8qguADopHKxFjWRUEIP/cRfYgcwQdEJ5Zqk2w2oydgZISf24g+RIrgA6Kjgi+e6tITUBjCz11EHyJD8AHRyS/rJljWRWkIPzcRfYgEwQdESz2EOZv7AygV4eceog+hI/iAaKll3US6W09A6Qg/txB9CBXBB0QrlemTnkSTnoDyEX7uIPoQGoIPiFpW+pJtehsIDuHnBqIPoSD4gOip4GNZF2Eh/OxH9CFwBB8QvWSml4cwI3SEn92IPgSK4AMqISsxlnUREcLPXkQfAkPwAZWhHs+SSPfoCQgf4Wcnog+BIPiAyuhf1m3RExAdws8+RB/KRvABlZGVTP4sH1AphJ9diD6UheADKkddx5dM9+oJqAzCzx5EH0pG8AGVk0z3sKwLYxB+diD6UBKCD6icbDbNsi6MQ/iZj+hD0Qg+oLL6Um2SzPTpCTAH4We2qmyO3gZGRfDBVgunXSBnzHm3rKi/Wu8x186me+TFxtvlaPcWvWeQeuNGV7xRT4CZbr2KtDAR0YeCEXywTf2kNbJ2zjvyoVdbXa/32qMv2SIvHv6R7G35jTT37pJMNpULvkOSysT1fwMwF+FnHqIPBSH4YIspNfNzkfdGWTbjaplfd67ea7/Gzs2yo+nnsu3oz6S5Z6feC5iN8DML0YdR+RR8M2pXSGvvK3qCTeZMOTN/Vm9V/XVSPbZW73XTzqZ7ZXPDN2R38y/1HthE/TrdevROPbmP8DMH0YcR+RZ8ly7/nNy95b16D2wwf+p6OW3222XN7LfqPf7Yduwu2XzwG7Kn9Td6D2xw8/qHZdPBfyP8EDnu3sWwfAu+a069TU+wwaJpr5OrT/2yvO30/+dl8CmnzX6bvG/dg/K2M34sp0y/WO+FDd5x5k/zZ/x8wV29ZiD6MCQfg29m7Uq9ByZbMv0N8qbVX5XfX/uD/FIuRM6Y+y75o/WP5T+ThVPP13thOsIPUSP68BoEH0xUX3uqvHn11+T6074ty2e+Ue/F8c6ef5PcsuHp3Gf0LambsFDvhckIP0SJ6MMJCD6Y6Mx575G3nvHvsmzmlXoPRrJuwQflpnX/7VVM2IzwQ1SIPvwOwQfTTK9dlv85XbLsr2TCuKl6Lwoxs3ZVPiauXvXPUj1mot4LUxF+iALRhzyCD6ZZO+ed8ta1t8vK+mv1HpTidad8Wt63/r9l6YzL9R6YivBD2Ig+EHwwytQJi+SNq/5JLl/xtzJp/Cy9F+VYNPV1+eXeNyz9C70HpiL8ECaiz3MEH0yyatab5PdPv11OnfUWvQdBunzFF+TdZ98rcyafoffARIQfwkL0eYzgg0nUQe7qVf9X6mrm6z0Iw6pZ18m7z/lFLqyv13tgIsIPYSD6PEXwwSTqUSPqLBSioZbQ33X2PXL+4k/oPTAR4YegEX0eIvhgkvMW/Q+5eOmf6wlRuvbUf8nf3QtzEX4IEtHnGYIPJrlixd/LBYs/qSdUgrq798az7tYTTET4IShV2Ry9DccRfKM71LlR7t7yXj0hTG874ycyv+5cPZkplcnKsd6kNPclpS2Wls5EWrpzX33pjMRTGUke94/P6qoqqRk3RiaOHSOTx4+RuvHjZPqEsVI/sVpm11bLuDFmH8iOdL0g33j6HD0hTDevf1iWTL9UT4W786V3ytajd+rJfbdeRZ4EjejzBMFXGKIvGrec/7RMHDddT+Zo7E7I3s6YHOhMSENXQo70JPSfKd/cSeNl4ZTxsrhuvCytmyDzJ4/Xf8YcsVS7/MPD5v1cXFNq9CmEH8pB9HmA4Csc0Re+D12wSWrG1ump8rY098q2ll7Z2donHfG03hu+qTVjZeW0ibJi+gRZP2eSVFWZcSawK35YvvwYd1CHqZzoUwg/lIrocxzBVxyiL1zvOvvnUj9pjZ4qZ3dbnzx3rEdebOqReKpy/whsi6cklsrIhLFj5Px5k+XCBXVyen2t/rOVs6v5F/Lj56/TE4JWbvQphB9KwY0cDiP4YJI3rf7XigZfOpOVxw91yj9tapRvvHhUNh7urmjw9STT+eBTYumMPNrQKX//TIN85rF9cv++9vz1hJWyqv7Nctnyz+sJJuLmDpSC6HMUwQeTXLT0f8vymVfpKVrqpotf5yLqL586ID/f3RrodXqlSmYy+ZtChqKuJbx96zG55YFX5K7dLdKrwzBqlyz7K1m34IN6gokIPxSL6HMQwQeTnDX/fXLO/Jv1FK3f7O+Qv/3tQXkgF32JCp7VO1l3cvSQS6SzcteuFvnYf++Rn7/SKpX4q7/+tG/Jmtk36AkmIvxQDKLPMQQfTLJ0xuUVecn/5iPd8nfPNMiv9rZVdAl3KMcv6xZC/Xd/urNZPvXQXnmsoUPvjc6NZ90lS6ZfoieYiPBDoYg+hxB8MEl97Sq5ZNlf6ykaR3uT8p0tR+UnO5qltS+l95ojMcKy7mia+pL5axG/tLlRDnVHu0T9lrXfldmTT9cTTET4oRBEnyMIPpjmdaf8iUypmaen8D3e0H+TxvaWPr3HLOp8o3qwc7meO9otf/rovvxZzKjMmLhcrlzxRT3BVIQfRkP0OYDgg2nOW/gRWTLjMj2FSy2X/nDrsf7r3gx+ApX664yng/vr+/dtTXLbc4elMx7NGc1Vs66ryFI9ikP4YSREn+UIPphm4bQL5IJTPqWncL3SHpPbnm2Ul5p69R4zxdMZ6QrgLN/JNh7ukr968qBsbYnm7//yFV/IX6cJsxF+GA7RZzGCD6YZN2aCXLA4muB7Ohc8X3/hiLTGonuLRinyy7rJ8P4a1bV+f/d0gzx0IJqbPFT4VY+ZqCeYivDDUIg+SxF8MNEFp3xa5k0J/6X96rl7d+5s0ZPZVPCpx6+ETd3A8rNdzXoKz6Kpr8uF39/pCSYj/HAyos9CBB9MtLL+mkiex/fz3S355+7ZQC3rBnHzRqHu3t2av74xbK/Lxb1PMWEzwg/HI/osQ/DBRJNr5soFiz+tp/DcuatZHj/UpSezZSQbynV8o1FnQb/z0lE9hUct89ZNWKgnmIzwwwCizyIEH0yl7tadNnGJnsJxVy74nm7s1pP5epIZSVbo/bkPHeyQ770c7hm/mbWr5A1L/1JPMB3hB4XoswTBB1PVT1otp4V8MLn31TZ5yqLgi3pZdyi/2d8u/297k57Cce6CW2TulLP0BNMRfiD6LEDwwWSnzXm7jKkaq6fgqbtSHzkY/evHSpXJVmZZdyi/2NOWD+awqJ/7OQs+oCfYgPDzG9FnOIIPJpteuyzUA8jzx7rz4WKTSi7rDuUnO5rkqcbwroNUZ/vU2V7Yg/DzF9FnMIIPplMHDvVsvjCo98v+ZIcdj2UZEFPLuiE+k69U6nmGeztiegqWemafCj/YhfDzE9FnKIIPpps6YVF+aTcsP93ZLGmDzpiNxqRl3ZOlc39t394S3h295y74gEyfuExPsAXh5x+iz0AEH2ygbt6oGVunp2DdtbtZGroSerJDdzIjKYMjdV9HPLQ7eieMm8bZPksRfn4h+gxD8MEG6rl8a0M6y/fCsR556pA9d+oqalm3x8Bl3ZOpO3rV6+vCoM728dw+OxF+/iD6DPL9zW/QW+4j+Oy2dvbbZWL1TD0FRz3q5F7LbtxQS6edcfODb8CPtjVJXyqjp+BMGj+bs30W8y38bnsi3OeKmoroM8Qvd3xMuuPhP0XfBASf/ZbMuFxvBUvdqdseS+nJDupuXRV+tmjNfb537AjnHb1rZr9Vb8FGPoVfe99+ufvl9+rJH0SfAV5o/IG82vKgntxG8NlvwdQNMnvyWj0FZ19nTJ605BVrA9QZMxuWdU/2wP522dUW/N28cyafKavq36wn2Min8Hvp8I/k2YZv6ckPRF+FvdLyK3l87xf15DaCzw1LZ1ymt4L1673tessOKbWsm7DrrOTx7t4dzuNwVnO2z3o+hd+92z8su5rv05P7iL4KOtz5vPxqx6f05DaCzx2nz/kDvRWcl5p7QjnzFCZ1hs+iJ8q8xktNPbLpSPA3zKyZfYPegs18Cr8fP3+9NHY+qye3EX0V0p04LA/v+Ws9uY3gc8eSGZdJ9dhaPQXHptesKWpZtzcZ/M0QUbsvhJtmJlZPlzPn/aGeYDOfwu++7R/OH5ddR/RVyG92/7m09OzSk7sIPrecMedGvRWcl5t7ZX+HPc/kU8u6HRYv6x5vd1tfKGf7zpr3Pr0F2/kSfupM373bPqwndxF9FfDsoe/Iwfan9OQugs8t48dNyp/pC9pjDZ16yw7dibRYdLPuqH69L/hrKZfPfKPeggt8Cb+dTffKxoNf05ObiL6IxVNdsvXIHXpyF8HnnrUhXMu3vzMur7bbcy2fWtYN4xl3lbStpVdeCeFnoB7WDHf4En6bctGnjtOuqsrm6G1E4On9t8mmhq/ryU02B9+hzo16CyebWrM4/yaOIP1sV7P8ttGOt2+oV6w19yXFxX9gXr54qtxyxhw9BaOxc7Psav5F/6AOM1W893TAkumX5L4u1ZNd7nzpnbL16J16ctOVK74oFy39Mz25heiLUHf8sNzx4tulNxnOg1FNwBk+FEpF1J89tt+aiGqLpyTm2Fm+491+7UoZN4Yww+hcD7+6moXyofM35v4ld57e4w6WdyP0fOP3CT5AU+/YtSX4elNpp4NP+W1I7+SFe1xf6u2MNzh7bR/RF5GW3t2y7dhdenIPwYdivdTcq7fMlsxkpcOid+uWauNhO5bZYQbXw29jw9dyx233nrBB9EXkhcYfSiLl5j9UCT4UK57OyFZLoq/bwtesleLZo90Sy/1cgEK5HH6xZLuTZ/uIvggc6XpBth+7W09uIfhQih2tfXrLbOqtG64v6x7vxWM9egsojMvhp6LvcNdzenID0ReBPa0PSjbr3tkCgg+l2tVmfvSpZd3OhB9n+QZsseTsK8ziavip4/aOY/foyQ1EXwQOtv9Wb7mD4EM5bHg2X5dnwadsbyH6UBpXw+/Vlvv1lhuIvpA19WyXY91b9eQGgg/lUDdFNPWa/Roztayrrjv0zeGepLTG3HjFHKLnYvg1dDwjh7ue15P9iL6QvdrygN5yA8GHch3siustMyUzGe+WdY+3p8OeN6TAPC6G345j/6W37Ef0hayhw52lXYIPQTjUbXb0+bise7x9RB/K5Fr4ubTES/SFqDfRJIc73TgtTPAhKEd6zF0+7F/W9fslRQ3dSb0FlM6l8FNLvK29r+rJbkRfiHY78m8HBB+CdKzXzKhIeL6sO+Bwd0JvAeVxKfx2NP1cb9mN6AvR3taH9Za9CD4ErTVmZvT5vqw7wNQoh51cCb8dx4g+jOJg+5N6y04EH4Km3m6RMHD51NS/rkpQdy1zxhNBciH8DrQ/IZms/f9CRPSFRF3PZzOCD2HoMvAdtmpZl7N8J+r04F3DiJYL4ddj+XFdIfpC0pNs1lv2IfgQlp6UWTGhzu0ROK/VmeBZfQie7eFH9GFYvQk7o4/gQ5jiKbOWUNXduup1azhRn2E/J7jD5vDrtfhkzgCiLyQ2/uIg+BC2hEGBpa5dY1l3aAkP30aC6NgafrZftqUQfSHpS7bqLTsQfIhCOmtG9GUky80KI0gZ8nOCu2wMP5Z3MazeZIvessPK+msJPoSuSn+vtJ5ERlIs6w7LlJ8TYBKWdzEs2870PXPgq7Lx4L/qCQjHmKrK54Ra1lWPaMHwTPg5wW13vvRO2Xr0Tj3ZgeVdDCuWatNb9iD8ELbqMZWNCbWs28HduqMaP5boQ3hsDD6F5V0MK5Zs11t2IfwQppoKx0R3ImPMdYUmmzCWQwPCYWvwKSzvYlgTqqfpLfsQfgjLpOqxeit6allXPaIFo5syvnI/J7jL5uBTJo2fpbfsRfSFZMK46XrLToQfwjC5QjGRybKsW4ypNUQfgmV78Cm11UQfhjGxeobeshfhh6DV5aKvEvcIdCXTLOsWaOyYKplWM05PQPlcCD6lljN9GE5t9Uy9ZTfCD0Grn1itt6IRS2ekN8nDhgs1O+KfD9zmSvApk8fP1lv2IvpC4sKZvgGEH4I0a2J0Z5HU2b2OOO+RLca8yeP1FlAel4JP4UwfhlVbXa+33ED4IShzJ0UXFd2JtPAM5uIsJPoQANeCT5nENX0YTu14t6JPIfwQhPkRRUVfKiO9uS8UZ3Fdjd4CSuNi8CmTaljexTAmOXambwDhh3ItmhJ+VOSXdRMs65Zi2VSiD6VzNfgUzvRhWC6s/Q+H8EM56ieOC/2RIF2JtHCzbvFmTKyOdPkdbnE5+BSu6cOIlsy4RG+5h/BDOZZPm6i3gqeWddUXird6+gS9BRTH9eA7bc7b9JbdiL4QLZtxld5yE+GHUq2cFk5cpLJZaedu3ZKdMWuS3gIK53rwKWtm36C37Eb0hWjZjCv0lrsIP5Ri9cxwzvSpZV2U7qxZtXoLKIwPwaesmHmN3rIb0Rci9ay+RVMv0JO7CD8US72ZY3nAZ/vUkm6MZd2SnTazljdxoCi+BN+q+jc78+xdoi9kp8y4VG+5jfBDsc4M8KxSKsOybrnOmztZbwGj8yX4lFWzrtNb9iP6QrZ42sV6y32EH4pxVoDXj3WyrFu2C+YRfSiMT8GnLHXoUi2iL2Qza1fIvLpz9OQ+wg+FmjJ+bCDh15tKSzzNsm45zs8F31SWdlEA/4LvstxxfKWe7FeVzdHbCMlT+/9Znm34pp78cP7ij8uGRR/Tkz0OdW6Uu7e8V0843sVL/1zOnn+TnoKxvaVPvrPlqJ6Kp5Z1m/qSekKpPrthQaBnXpWfvPAW2dV0X+4oU5Wfq3J/9P9n7ntu33CzUpX/3wzuG25WhvzvHPf/NzArJ+/73Xz8/zb/pf70ifuG/v9XTt43xJz/3yr9+y5dfqssmW7fpT++BZ9y+YovyBuW/oWe7Ef0ReBI1wvysy3vlmzWryUoG8OP6Bte3YQFctO6h/QUnC9vbpTG7oSeitMaS0o8zT/CyrF4So38wxtO0VNwbn1wIHRwspvXP2xd9PkYfFVVY+VD52+UeVPO1Xvsx/JuBOZOOduZZ/wUg6Vet3TGDklzz3Y9BefiBXV6qzg9SbWsS/CV6+ql0/RWcF5puV9vwQU+Bp+yYdFHnQo+heiLiFoWGz/OvwulCT+3vNB4u94KzoZ5k2VWbbWeCpPMZLl5IwBzcp/7ZYum6ik4LzT+QG/Bdr4G34Tqafnocw3RFxF1Iehps914jUuxCD937GsLfnlXuWxRcWf7OhM8niUI1y0P/tljiXS3vHzkDj3BZr4Gn7Jh4Udzx+1VenIH0Rehc+b/kdRW1+vJL4SfG/qS7bL92N16Cs7586bIwimFvehfLesmWNYt2yl1NXLF4uDP8u1sukdvwWY+B19dzUInz/IpRF+EJtfMk7Vz3qEn/xB+btjX+ojeCtYbTxn92rJkJsOybkBuWDlTbwWL6LOfz8GnqOBTx2sXEX0RO2fBB2TqhMV68g/hZ7+9bQ/lb+oI2tr6Wjl79siPDemIE3xBUGdWw3gDR0fsAEu7lvM9+GZNWiPnOXqWTyH6IlYzboqsnXujnvxE+NktnUnKvraH9RSsNy2dLmPHDP2oj+5kOn8DB8oztqpKbjyVs3x4Ld+DT1HBp47TriL6KmDdgltkwdTz9OQnws9u247eJZkQnjs5c+I4ecvy6XoalMhkpItl3UD84ZpZMndSYddPFkP9enj+0Pf0BNsQfCIr6q9x9lq+AURfhVyy7K9lcs1cPfmJ8LNXU882efnIT/QUrIsW1MkZs2r11K+TZd1ArJ8zWa4J4bl8yuaGr8vhruf1BJsQfCLTJy6Va0+9TU/uIvoqRN0KftGSz+rJX4SfvV4+8h+SysT0FCx1k4F6N6/SxbJuIKbWjJWbT5+tp2AlM3256PuGnmATgq/fNbngm1l7qp7cRfRV0Mr6Nzl/KrkQhJ+dWnp3y5aQzvbV5YLvHatm5pd1u1nWDcQHz5grMyaM01OwNh/8uhzr3qon2ILg63fVyn+UU2e9RU9uI/oq7PzFn8jF35v15C/Cz05qiTee7tJTsNTdvNcuCWcp0jfvWl0v584Z+c7oUsVSHZzlsxDB1++c+e+XC5d8Rk/uI/oMcM2p/yyzJ6/Vk78IP/u09+0P7do+5U3LZsgbCb+yXHXKNLk+hDdvDFDX8qmzvrAHwddv8bQL5ffWfldPfiD6DHHjWXdLTXVpL553CeFnn5cP/0T6ki16Ct7Na2fnnyuH4qnP7Y9Cuo5P6Ukck80HOctnE4KvX+34enn/eU/oyR9En0E+tGGT3vIb4WeXznijbDnyH3oKxyfPnSdnzgpnedJV6vNSn1uY1LJue2y/nmA6gm/QZy5p0lt+IfoM8/ELd+otvxF+dnnx8A+kuXeXnsLxp+vnE34FUp+T+rzCdLR7izx9wP1HXLiC4Bt061X+Pg2A6DMQ4deP8LNHLNkpmw/+m57Cod7U8Znz5su5c4J/fZhL1OejPqfh3mwSlMf2fEH6km16gskIvkE+B59C9BmK8OtH+Nljd/OvcgeWn+opHGOqquR/rZ8vFy/k+tehqM9FfT7qcwrTs4e+HfrPGsEg+Ab5HnwK0Wcwwq8f4WePTQe/Lp2xBj2F5yNnzQ31jlQbXb9sev5zCVtb3978WT6Yj+AbRPD1I/oMR/j1I/zs0BVvlE0N4S7zDlDPnrvljDl68pv6HN61ZpaewvXY3i9IR+yAnmAqgm8QwTeI6LMA4deP8LPDtqN3ya7m+/QUrssXT5VbX79IFk2p0Xv8snjKePn8hYvzn0MU1BtYnj/0PT3BVATfIILvRESfJQi/foSfHdQyb18qmov8V02fKH9/8WK5MqLwMYV66PIXL14iK6ZN0HvC1ZtsZlnXAgTfIILvtYg+ixB+/Qg/87X2vpILv2iWeZWxVVXy/jPmyKfXzZc5tdV6r5vmTRov/3P9gvxDl0O+X+MEj+75W2nq2aYnmIjgG0TwDY3os0x/+PGLmfAz34uNt8vzjT/QUzTOmztZvnzpUrl++XS9xy2/t2KGfOnSJbIupPfoDuexvX+X+z33FT3BRATfIIJveESfhT5+oXoILr+oCT/zPbH3i7Kj6b/0FA31eLp3rZ4l/3TJErlwgRuPdrko9/fxpdzfz42n1kuEJ/fyntr/JXnolb/UE0xE8A0i+EZG9FmK8OtH+JnvwV2fkf1tj+opOgsmj5ePnj1X/ub1i619d+8Fub9udaPG/8j9fczP/f1ETZ3de2DXn+oJJiL4BhF8oyP6LEb49SP8zHfPtg/J0a6X9BStldMn5N9B+8WLT5ErFk/Nnwk0mfrruzJ/k8Yp8oncX3dUN2qcbNuxu+RXOz+pJ5iI4BtE8BWmKpujt2Gprz65Kvefhh/JInD+4o/LhkUf01NpDnVulLu3vFdPCNpN634jdRMW6akyepJpebyhU55q7JJX2mN6b+WpuHv9/Cn5t2pMqh6r91bGoc5N8u1nNugJQbt5/cOyZPqleioNwTeI4Csc0ecIwq9fueFH9IUrnuqUj124QyaMM+PxKge7ErL5SJe80NQru9v69N7orJw+Uc6eVSvr50425lmD3Ymj8qVHw3+zh8/KjT6CbxDBVxyizyGEX79ywo/oC08mm8y/wkv5i8t7pHpsbX7bFO3xtGxr6ZUdrb3yantc9nYEfxZw6dQJsnxajayeUSunzayVaTWVPaN3snTuZ/S3v4n+2kHflBN9BN8ggq94RJ9jCL9+pYYf0ReervghSaR79CTyofM3y/y6dXoyTyqTlYNdcTnUnZCjvUlp7ktJWywlnfGU9KQy0pVI6//moCnjx8rk6rH579MnjJP6ieNk7qTxMn9Sdf5M3jiDLyjsih+WLz82X08IU6nRR/ANIvhKQ/Q5iPDrV0r4EX3hiKc68suGJ7vh9H+XM+e9R0+olGPdL8u//fYMPSFspUQfwTeI4Csdd+86iLt6+3FXrxnS2cSQwafc/fJ75eFXP6cnVMK+tkcIPsMRfIMIvvIQfY4i/PoRfpXXkzimt4b26J7Py693/YmeECX1WJYfbL5MTzARwTeI4Csf0ecwwq8f4Vc5sVS7JNO9ehreb/f/X7ln2wf1hChsbvim/PTFt+sJJiL4BhF8wSD6HKfCLysZPfmL8IueWtYd7Szf8Z479B352ZY/kM5Yg96DsKh36d63/Y/1BBMRfIMIvuAQfR74xIW7Cb8cwi9a3fEjeqtwLx+5Q3747BUc7EJytHuL3PHiDbxL13AE3yCCL1hEnycIv36EXzRiqTZJZUp7zl1L7678QU9d55fMRP/AZFdtOvhv8sPNl8v2Y/+p98BEBN8ggi94RJ9HCL9+hF+40pm49CSa9FQ6dZ3f7ZuvkL2tD+k9KIWK6J9teZf8YsdHpTfZrPfCRATfIIIvHESfZwi/foRfeLoTxS/rDudgx2/zy73qGjQUT10nqe7OffnIf+g9MBXBN4jgCw/R5yHCrx/hF7y+ZIukMnE9BUddg/bjF66Xxs5n9R6MpL1vn/znyzfl74juijfqvTAVwTeI4AsX0ecpwq8f4RccdQ1fby76wrKr6T759sYN+WVKdUMCXqs9tl8eevWv5LubXi8vHr5d74XJCL5BBF/4iD6PEX79CL9gBLmsO5xsNpO/IeHbz2yQ+3d+On+9GtR1e7vlwd2flW89vU4e2/OF/Ht0YT6CbxDBFw3evQv5ypMrpYr+z7+rd8HUDbx7twTqBoG+ZKueolMzrk7WL/xjOW/hR2TaxCV6rz/UO3OfO/Td/LV7iXS33gvTqXfvqn95Ifj6EXzRIfqQR/j1U+GnzvyhcGpZtyN2QE+VUVtdL+sX9cfflJr5eq+7Dnc+J8819sdeOpPQe2GLtXPeQfBpBF+0iD78DuGHUrT37ZV0NqmnylLxt2b2W2XNnBtkxcxr9F43qLh+sfF22dl8b/76RsB2BF/0iD6cgPBDMXqTTdKXbNOTWWZMXC5nzb8pF4E3yOzJa/Ve+7zScn8+9nY13yfxVJfeC9iN4KsMog+v8ZUnVkhV1Vg9AUNLZfqkI3ZQT2ZT0aeu/Ttr3vvy1wGaTt0U8/T+f5EXD/+QmzLgHIKvcog+DInww8iy0ta3VzLZlJ7tcenyW+XSZZ/Tk3ke2fM38sirt+oJcAvBV1ms42FIn7joFclm03oCTqRes2Zj8FmBfw+Howi+yiP6MCzCD0NJZnollmrXEwCMjuAzA9GHERF+OFFWurnGDEARCD5zEH0YFeGHAT2JY5Lh10K4qqr0BmA/gs8sRB8KQvghme6RWKpDTwAwMoLPPEQfCkb4+Uu9o7kr3qgnhIobOeAAgs9MRB+KQvj5SS3rZnN/AMBoCD5zEX0oGuHnF/Ui/3iqU08IHdf0wWIEn9mIPpSE8POD+hmzrAugEASf+Yg+lIzwc1934qjeQmS4pg8WIvjsQPShLCr8eDODmxLprvzSLgCMhOCzB9GHsn3yolcJP8f0L+vyEOaK4Jo+WITgswvRh0AQfm7pThzRW4gcy7uwBMFnH6IPgSH83BBPdUgi3aMnAHgtgs9ORB8CRfjZTf3suHmjwljeheEIPnsRfQgc4WcvlnUBjITgsxvRh1AQfvaJpdolme7VEyqGa/pgKILPfkQfQkP42SOTTeZftQYAQyH43ED0IVSEnx264yzrGoNr+mAYgs8dRB9CR/iZLZZqk2SmT08AMIjgcwvRh0gQfmbqX9Zt0hOMwDV9MATB5x6iD5Eh/MzDWzcADIXgcxPRh0j1h19ST6ikvmSrpDIxPcEYXNOHCiP43EX0IXKfvGgP4Vdh6WxCepPNegKAfgSf24g+VAThV1ndLOsCOAnB5z6iDxVD+FVGX7JFUpm4ngCA4PMF0YeKIvyilc7FXm8u+gBgAMHnD6IPFUf4Racr3qi3AIDg8w3RByMQfuFTN26k+YwBaASff4g+GIPwC496NIt6RAsAKASfn4g+GIXwCwfLugAGEHz+IvpgHMIvWD2JY7nPkzehACD4fEf0wUiEXzBSmT6Jpdr1BMBnBB+IPhiL8Csfy7oAFIIPCtEHoxF+petJHM19dmk9AfAVwYcBRB+Mp8JPvSsWhUumeySW6tATAF8RfDge0QcrfOqivYRfwbLSleDduoDvCD6cjOiDNQi/wnQnjko2m9ETAB8RfBgK0QerEH4jS6S7JZ7q1BMAHxF8GA7RB+sQfsPJSnecZV3AZwQfRkL0wUqE32t1J47kso9/4AO+IvgwGqIP1iL8BiXSXRJPdekJgG8IPhSC6IPVCD+1qJuRLpZ1AW8RfCgU0Qfr+R5+3fEjeguAbwg+FIPogxN8DT91p666YxeAfwg+FIvogzN8C79sNp2/eQOAfwg+lILog1N8Cj+Cr3gXLvmMXLrsc3oy09nzb5alMy7TE/BaBB9KVZXN0duAM257fImMHVOjJ/fEUx35N2+gcNef9i1Zt+CDejLfPds+KM8d+o6egH4EH8pB9MFZroafWtZt7XtVTxjNzNqV8qbVX5PlM6/Se+zx5L7/Iw/u/qye4DuCD+Ui+uA0F8OvM3ZQkpk+PWEk8+vWyVtP/3eZNWmN3mOf7cfulv98+SZu2PEcwYcgEH1wnkvhF0u1S0/imJ4wklOmXyzvPfcBGTdmgt5jr8Odz8lPXniLdMYP6T3wCcGHoBB98IIL4ZfJpqStb4+eMJIVM6+W95x7v57c0Jtske9veoM09WzTe+ADgg9B4u5deOFTF++TdCauJzt1xRv1Fkby+lP+p3PBp9RWz5SPvn6rLJr2er0HriP4EDSiD96wOfz6kq2SysT0hOFcuvxWeeOqL+nJTR8470mZM/kMPcFVBB/CQPTBKzaGXyablN5ks54wHBV8pj+DLygfed1LMmvSaXqCawg+hIXog3dsCz+WdUdnw0OXg6aWegk/9xB8CBPRBy/ZEn59yRZJWX4tYtjOWfB+uWrlP+rJL+8591eEn0MIPoSN6IO3TA8/9dem7tjE8FbWXyu/d9p39eSfqRMWyzvO/KnMqF2h98BWBB+iQPTBayaHX1fisN7CUFToXHvqV/Tkr9mT1/I5WI7gQ1SIPnjPxPBTN26kMwk9YSgqdDjD1U+d8bx2NeFnI4IPUSL6gByTwk89mkU9ogXDU4GjQgeDzl/08fwX7EHwIWpEH6CZEn7dcZZ1R0LcDI8YtgfBh0og+oDjVDr8epNNks4m9YSTLZtxBcuYo1DL3tMmLtETTETwoVKIPuAklQq/VKZP+pJtesLJasZNkStW/L2eMBx1naNvzyy0CcGHSiL6gCFUIvy6WNYd0RUrvigLpm7QE0Zy9vyb818wC8GHSiP6gGFEGX49iWOSyab0hJOdNe99smHRR/WEQqizfSzzmoPggwmIPmAEUYRfMtMrsVS7nnCy+kmr5YqVLOsWSwUfy7xmIPhgCqIPGEXY4ce7dUemruOrq1mgJxSDZd7KI/hgEqIPKEBY4deTOCrZbEZPOJm6W3fN7LfqCaVYv/DDegtRI/hgGqIPKFDQ4ZdM90gs1aEnDOWs+TfpLZRq4dQLZO2cd+oJUSH4YCKiDyhCkOHHsu7I5tWdK2fNe6+eUA6WeKNF8MFURB9QpCDCrztxWLK5PzC8s+dxli8o6i0dy2depSeEieCDyYg+oATlhF8i3S3xVJeeMBR15ylLu8E6i4gOHcEH0xF9QIlKDT+WdUenliMnjJuqJwThzHl/KPPr1usJQSP4YAOiDyhDPvyyCT2NjuArzOJpF+ktBIkl3nAQfLAF0QeU6VMX7S0o/OKpzvzSLkY2efzc/KNaELwl0y/VWwgKwQebEH1AAEYPv6x0J47obYxk8XTO8oVlyYzLWDYPEMEH2xB9QEBGCj+WdQvHWb7wjK2qzn2+V+oJ5SD4YCOiDwjQUOEXT3VIIt2jJ4xmZf2b9RbCsIzr+spG8MFWRB8QsOPDL5tNS3fiaH4bo5sz+QyZOmGRnhAGbuYoD8EHmxF9QAgGwq8rcVjvQSHqJ63WWwjL9InLuK6vRAQfbEf0ASFR4ZdM9+oJhaibsFBvIUx1nE0tGsEHFxB9QIg4UBSnroYYicLUCYv1FgrB72O4gugDQsYBo3Cc6YsG100Wjt+/cAnRB0SAA0dhiL5osLxbGH7fwjVEHxARDiCjm8rybiRY3h0dv1/hIqIPiBAHkpFxpi8aLO+OjN+ncBXRB0SMA8rwOmMNegth4nMeHr8/4TKiD6gADixD64gf1FsIU2ec6BsKvy/hOqIPqBAOMK/FGahodMSI65Px+xE+IPqACuJAcyKiLxp8zifi9yF8QfQBFcYBZ1Any7uRYHl3EL//4BOiDzAAB55+nIGKRifLu3n8voNviD7AEByAiL4opDJx6Uk06clf/H6Dj4g+wCC+H4i4ezd8LO3y+wz+IvoAw/h8QOJMX/h8X9ol+OAzog8wkM8Hpp1N9+othGHHsZ/rLf8QfPAd0QcYytcD1M6me/QWwuBr9BF8ANEHGM3HA9We1t/oLQStoeMZaY/t15M/CD6gH9EHGM63A1Z73z451LFRTwjS7uZf6i1/EHzAIKIPsIBvB67dLb/SWwiSb0u7BB9wIqIPsIRPB7B9rY/oLQRFLe0e7X5JT+4j+IDXIvoAi/hyINvX9oiX156F6ZVmf86eEnzA0Ig+wDLehF/rw3oLQXil5X695TaCDxge0QdYyIcD29ajP9VbKJd6DI5a3nUdwQeMjOgDLOX6AW5386/kpcM/0hPKseng1/WWuwg+YHREH2Ax1w90zxz4imSzGT2hFFuP3un80i7BBxSG6AMs5/IB71DnJnnm4Ff1hFJsbnD7LB/BBxSO6AMc4PKBT53t60k06QnFUMvjex2+IYbgA4pD9AGOcPUA2Na3R545+BU9oRibG76ht9xD8AHFI/oAh7h6INx44KvS3LNDTyjE84e+Jwfan9STWwg+oDREH+AYFw+IsVRHfpkXhdvk6LV8BB9QOqIPcJCLB0YVMc83fl9PGMl92/9YGjs368kdBB9QHqIPcJSLB8j/2vp+aeh4Wk8YyqN7Pi+bG76pJ3cQfED5iD7AYS4eKO/a8u78ci9e64XGH8jDr35OT+4g+IBgEH2A41w7YLb17c2HH07U3rdP7tl2i57cQfABwSH6AA+4duDc3fxLeWDX/9ITlO9vvkQy2bSe3EDwAcEi+gBPuHYAfWr/l+W5Q9/Vk99+sPky6Ygd0JMbCD4geEQf4BHXDqRqOdP198qO5pE9fyP72h7RkxsIPiAcVdkcvQ3AE7c+WKW33HDRkj+TK1d+UU/++NmWP5CXj9yhJzcQfEB4iD7AU66F37IZV8r71j2oJ7f1Jpvlh5uvkKPdL+k9biD4gHARfYDHXAu/WZPWyI1n3S31k1brPe7Z3/a43P7sFZLOJvUeNxB8QPiIPsBzroXfhHFT5bo135DT5/6B3uOOZxu+Jfdu/7Ce3EHwAdEg+gA4F37K1au+LK875U/0ZL/7d35anj5wm57cQfAB0SH6AOS5GH6nznqLnLfoI7Ji5jV6j32eP/S9/HuHeZcugHIRfQB+x8XwU9bOeYesX/gRWTrjMr3HfC8d/pFsbviGHGh/Uu9xC8EHRI/oA3ACV8NPOXPee3Lx98eyeNqFeo95th69Mxd7X5e9rQ/rPe4h+IDKIPoAvIbL4aecs+D9ct7Cj8j8uvV6T+XtbLpHNh38uvMPmyb4gMoh+gAMyfXwU1bWXysrcl8rZ14rM2pX6L3RUW/SeLXlgdzXg05es3cygg+oLKIPwLB8CL8BS2dcLqtn/37oAahCb/vRu+XV1gekuWen3us+gg+oPKIPwIh8Cr8B8+vWyepZvy9LZ14hU2sWSd2EhfrPFCeZ6ZOu2CHpjDfkr9Xbeey/ctuH9J/1B8EHmIHoAzAqH8PvZCr8BgIw/6W3a8bV/S7sVNB1xhqkS3/vTbbo/7W/CD7AHEQfgIIQfigWwQeYZYz+DgAj4gCOYvDrBTAP0QegYBzIUQh+nQBmIvoAFIUDOkbCrw/AXEQfgKJxYMdQ+HUBmI3oA1ASDvA4Hr8eAPMRfQBKxoEeCr8OADsQfQDKwgHfb/z8AXsQfQDKxoHfT/zcAbsQfQACQQD4hZ83YB+iD0BgCAE/8HMG7ET0AQgUQeA2fr6AvYg+AIEjDNzEzxWwG9EHIBQEglv4eQL2I/oAhIZQcAM/R8ANRB+AUBEMduPnB7iD6AMQOsLBTvzcALcQfQAiQUDYhZ8X4B6iD0BkCAk78HMC3ET0AYgUQWE2fj6Au4g+AJEjLMzEzwVwG9EHoCIIDLPw8wDcR/QBqBhCwwz8HAA/EH0AKorgqCw+f8AfRB+AiiM8KoPPHfAL0QfACARItPi8Af8QfQCMQYhEg88Z8BPRB8AoBEm4+HwBfxF9AIxDmISDzxXwG9EHwEgESrD4PAEQfQCMRagEg88RgEL0ATAawVIePj8AA4g+AMYjXErD5wbgeEQfACsQMMXh8wJwMqIPgDUImcLwOQEYCtEHwCoEzcj4fAAMh+gDYB3CZmh8LgBGQvQBsBKBcyI+DwCjIfoAWEuFzrSJp+jJT+rvn+ADUAiiD4DVPnXRPjlz3nv05Bf1963+/gGgEFXZHL0NANZ6tuFbcu/2D+vJfdev+aasW/ghPQHA6Ig+AM7Y1Xyf/Pj56/Xkrnefc6+sqr9OTwBQGKIPgFMaO5+V+7Z/OP/dNfPr1sl1a76Z/w4AxSL6ADinO3FY7t32YdnZdK/eY79TZ10v15/2TZk8fp7eAwDFIfoAOGvjwa/JptxXU892vcc+syatkfMWfVQ25L4AoBxEHwCnxVNd+fBTAdgZb9B7zVdXszAfeir4asZN0XsBoHREHwAvdMcP58NvY8PXJJZs13vNM6F6mmxY2H9mb3INS7kAgkP0AfBKS++u/vjLfWWzab238qqqxuZDT33NrF2l9wJAcIg+AF463PWc7Gq6T15p+bUcbH9K743eommvlxUzr5ZVs66TeVPO1XsBIHhEHwDvNfVsy9/p+2ouAPe2Pqz3hmfpjMtkeS701B25syadpvcCQLiIPgA4Tm+iSXY03ZOLwP6voJw66y35r9W5r9rxs/ReAIgO0QcAI1AR2JPMfcWP5b+ruTtxLP+9V+3PfZ+Ui7ja6txX7vvk8bPz3yfl5kk1s/PfiTwAJiD6AAAAPDBGfwcAAIDDiD4AAAAPEH0AAAAeIPoAAAA8QPQBAAB4gOgDAADwANEHAADgAaIPAADAA0QfAACAB4g+AAAADxB9AAAAHiD6AAAAPED0AQAAeIDoAwAA8ADRBwAA4AGiDwAAwANEHwAAgAeIPgAAAA8QfQAAAB4g+gAAADxA9AEAAHiA6AMAAPAA0QcAAOABog8AAMADRB8AAIAHiD4AAAAPEH0AAADOE/n/6tUrEjN3YDsAAAAASUVORK5CYII=;" vertex="1" parent="1">
          <mxGeometry x="310" y="440" width="133.92" height="115" as="geometry" />
        </mxCell>
        <mxCell id="Z2aWivUbkIMFIZujtj76-16" value="&lt;b&gt;&lt;font style=&quot;font-size: 14px;&quot;&gt;sever IP 8.8.8.8&lt;/font&gt;&lt;/b&gt;" style="text;html=1;align=center;verticalAlign=middle;resizable=0;points=[];autosize=1;strokeColor=none;fillColor=none;" vertex="1" parent="1">
          <mxGeometry x="440" y="478" width="120" height="30" as="geometry" />
        </mxCell>
        <mxCell id="Z2aWivUbkIMFIZujtj76-17" value="&lt;font color=&quot;#b3b3b3&quot;&gt;(load balancer)&lt;/font&gt;" style="text;html=1;align=center;verticalAlign=middle;resizable=0;points=[];autosize=1;strokeColor=none;fillColor=none;" vertex="1" parent="1">
          <mxGeometry x="325" y="540" width="100" height="30" as="geometry" />
        </mxCell>
        <mxCell id="Z2aWivUbkIMFIZujtj76-18" value="" style="endArrow=none;html=1;rounded=0;" edge="1" parent="1">
          <mxGeometry width="50" height="50" relative="1" as="geometry">
            <mxPoint x="160" y="680" as="sourcePoint" />
            <mxPoint x="320" y="560" as="targetPoint" />
            <Array as="points" />
          </mxGeometry>
        </mxCell>
        <mxCell id="Z2aWivUbkIMFIZujtj76-19" value="" style="endArrow=none;html=1;rounded=0;" edge="1" parent="1">
          <mxGeometry width="50" height="50" relative="1" as="geometry">
            <mxPoint x="440" y="560" as="sourcePoint" />
            <mxPoint x="580" y="670" as="targetPoint" />
          </mxGeometry>
        </mxCell>
        <mxCell id="Z2aWivUbkIMFIZujtj76-21" value="" style="rounded=1;whiteSpace=wrap;html=1;" vertex="1" parent="1">
          <mxGeometry x="-120" y="680" width="380" height="290" as="geometry" />
        </mxCell>
        <mxCell id="Z2aWivUbkIMFIZujtj76-22" value="" style="rounded=1;whiteSpace=wrap;html=1;" vertex="1" parent="1">
          <mxGeometry x="440" y="670" width="350" height="290" as="geometry" />
        </mxCell>
        <mxCell id="Z2aWivUbkIMFIZujtj76-23" value="" style="sketch=0;pointerEvents=1;shadow=0;dashed=0;html=1;strokeColor=none;fillColor=#505050;labelPosition=center;verticalLabelPosition=bottom;verticalAlign=top;outlineConnect=0;align=center;shape=mxgraph.office.servers.web_server;" vertex="1" parent="1">
          <mxGeometry x="-90" y="710" width="48" height="57" as="geometry" />
        </mxCell>
        <mxCell id="Z2aWivUbkIMFIZujtj76-25" value="" style="sketch=0;pointerEvents=1;shadow=0;dashed=0;html=1;strokeColor=none;fillColor=#505050;labelPosition=center;verticalLabelPosition=bottom;verticalAlign=top;outlineConnect=0;align=center;shape=mxgraph.office.servers.web_server;" vertex="1" parent="1">
          <mxGeometry x="476" y="700" width="48" height="57" as="geometry" />
        </mxCell>
        <mxCell id="Z2aWivUbkIMFIZujtj76-26" value="Nginx" style="text;html=1;align=center;verticalAlign=middle;resizable=0;points=[];autosize=1;strokeColor=none;fillColor=none;" vertex="1" parent="1">
          <mxGeometry x="-92" y="767" width="50" height="30" as="geometry" />
        </mxCell>
        <mxCell id="Z2aWivUbkIMFIZujtj76-27" value="Nginx" style="text;html=1;align=center;verticalAlign=middle;resizable=0;points=[];autosize=1;strokeColor=none;fillColor=none;" vertex="1" parent="1">
          <mxGeometry x="470" y="757" width="50" height="30" as="geometry" />
        </mxCell>
        <mxCell id="Z2aWivUbkIMFIZujtj76-28" value="" style="sketch=0;pointerEvents=1;shadow=0;dashed=0;html=1;strokeColor=none;fillColor=#505050;labelPosition=center;verticalLabelPosition=bottom;verticalAlign=top;outlineConnect=0;align=center;shape=mxgraph.office.servers.application_server_blue;" vertex="1" parent="1">
          <mxGeometry x="47" y="707.5" width="46" height="56" as="geometry" />
        </mxCell>
        <mxCell id="Z2aWivUbkIMFIZujtj76-29" value="" style="sketch=0;pointerEvents=1;shadow=0;dashed=0;html=1;strokeColor=none;fillColor=#505050;labelPosition=center;verticalLabelPosition=bottom;verticalAlign=top;outlineConnect=0;align=center;shape=mxgraph.office.servers.application_server_blue;" vertex="1" parent="1">
          <mxGeometry x="610" y="700" width="46" height="56" as="geometry" />
        </mxCell>
        <mxCell id="Z2aWivUbkIMFIZujtj76-30" value="" style="sketch=0;pointerEvents=1;shadow=0;dashed=0;html=1;strokeColor=none;labelPosition=center;verticalLabelPosition=bottom;verticalAlign=top;align=center;fillColor=#515151;shape=mxgraph.mscae.system_center.central_administration_site_sql" vertex="1" parent="1">
          <mxGeometry x="740" y="700" width="38" height="50" as="geometry" />
        </mxCell>
        <mxCell id="Z2aWivUbkIMFIZujtj76-31" value="" style="sketch=0;pointerEvents=1;shadow=0;dashed=0;html=1;strokeColor=none;labelPosition=center;verticalLabelPosition=bottom;verticalAlign=top;align=center;fillColor=#515151;shape=mxgraph.mscae.system_center.central_administration_site_sql" vertex="1" parent="1">
          <mxGeometry x="180" y="710.5" width="38" height="50" as="geometry" />
        </mxCell>
        <mxCell id="Z2aWivUbkIMFIZujtj76-32" value="" style="endArrow=classic;startArrow=classic;html=1;rounded=0;exitX=0.447;exitY=0.655;exitDx=0;exitDy=0;exitPerimeter=0;" edge="1" parent="1">
          <mxGeometry width="50" height="50" relative="1" as="geometry">
            <mxPoint x="39.8599999999999" y="735.1600000000001" as="sourcePoint" />
            <mxPoint x="-50" y="735.21" as="targetPoint" />
          </mxGeometry>
        </mxCell>
        <mxCell id="Z2aWivUbkIMFIZujtj76-34" value="" style="endArrow=classic;startArrow=classic;html=1;rounded=0;exitX=0.447;exitY=0.655;exitDx=0;exitDy=0;exitPerimeter=0;" edge="1" parent="1">
          <mxGeometry width="50" height="50" relative="1" as="geometry">
            <mxPoint x="170" y="728.16" as="sourcePoint" />
            <mxPoint x="80.1400000000001" y="728.2099999999999" as="targetPoint" />
          </mxGeometry>
        </mxCell>
        <mxCell id="Z2aWivUbkIMFIZujtj76-35" value="" style="endArrow=classic;startArrow=classic;html=1;rounded=0;exitX=0.447;exitY=0.655;exitDx=0;exitDy=0;exitPerimeter=0;" edge="1" parent="1">
          <mxGeometry width="50" height="50" relative="1" as="geometry">
            <mxPoint x="599.86" y="724.66" as="sourcePoint" />
            <mxPoint x="510.0000000000001" y="724.7099999999999" as="targetPoint" />
          </mxGeometry>
        </mxCell>
        <mxCell id="Z2aWivUbkIMFIZujtj76-36" value="" style="endArrow=classic;startArrow=classic;html=1;rounded=0;exitX=0.447;exitY=0.655;exitDx=0;exitDy=0;exitPerimeter=0;" edge="1" parent="1">
          <mxGeometry width="50" height="50" relative="1" as="geometry">
            <mxPoint x="730" y="720" as="sourcePoint" />
            <mxPoint x="640.1400000000001" y="720.05" as="targetPoint" />
          </mxGeometry>
        </mxCell>
        <mxCell id="Z2aWivUbkIMFIZujtj76-37" value="" style="shape=image;verticalLabelPosition=bottom;labelBackgroundColor=default;verticalAlign=top;aspect=fixed;imageAspect=0;image=data:image/png,iVBORw0KGgoAAAANSUhEUgAAAEwAAABNCAYAAAAMy4KOAAAAAXNSR0IArs4c6QAAAARnQU1BAACxjwv8YQUAAAAJcEhZcwAADsMAAA7DAcdvqGQAAAUISURBVHhe7ZtJKH1tGMAf85ShFClFKUOGsjatZCFRKCzYUUjILDIWYmFlo2RDlpLYWNpYWAhZGEoylnmevu97zn2+vnsd/M97znnPee/9zq9O97zP4l79vMNznvc9bn/9AwjK0tIS3N/fQ3FxMUXMx50+hcTb2xteX1+pJQbCC3t5eaGWGAgv7O3tjVpiwHUO29nZgbm5OdW95PHxEe7u7iA8PJwiP+Pu7g5RUVFQUVEhieYFN2Eoq7W1FT4/PyliDCkpKTA4OEgt/eEyJA8ODqCzs9NwWcjGxgbd8UF3YcfHx9DS0iLc6qYXug7Jk5MTaGhogIeHB4o4Mjw8DH5+ftTSB8zV8LJnYWGB7vRHN2Gnp6dQX1//oywEFwB/f39q6cPs7CzMzMxQywZPYboMyaOjI6itrf1VlqugWdjh4aHUs76mDtHR0XTnWmgShrIaGxtlsiIjI7ku7WaiWtj5+fm3soKDg2FkZASCgoIo4lqoEnZ5eQl1dXUyWbgCTkxMQGBgIEVcD2ZhFxcX366GKGtyctJwWREREXRnIzU1le74wCQMZTU1NcHV1RVFbISGhsLU1JQpwzAjIwMKCwvBx8dHkoVPGDxRnIfhnIVJ6e3tLUXY4ZGHGY3iHtbR0aFJlqugWBiWirWA5Rc3NzdqOS+qVklWUBbmZr6+vhRxXhTPYSUlJQ4rI25MFBUVUet3sGehLDU97OzsTMr3Pj4+KMIPDw8PyMrKgsrKSorIUS2srKwMSktLqcWHm5sbqKmpkT6NAv+pubm5UFVVRRFHDBmSasDSdFdXl6GyEOw/y8vL1JIjpDBcjTGfwsqtGby/v9OdHOGGJP4GVmzxwf47cI7x8vKilj7s7+9Llz0/1dSEEoZlbZyzsBj5E2YXIYUZkvggX15e/qssERBCGMrCpdy+ByM89xfVYrqwp6cnaf8SS0b2oCwRi5CmCsOd7e7ubtjb26OIDZQ1MDAA8fHxFBEH04Rhz+rt7ZV2yO3BFRB7VkJCAkXEwhRhOGcNDQ3B9vY2RWx4enpKcRF71r8YLgyTwp6eHlhfX6eIDSwAjo+PQ2xsLEXExFBheNaiuroaNjc3KfIf2OswB8vLy3O4RMNQYe3t7cLnWX/CUGH4uKPwweJbzC5ALi4uGitMiywEN1lwrjMD3PhZWVkx9lny63ckJydLlxJwGy87OxsCAgIooh9KniWnp6chMzPTXGFGFCGV4JQP386CJYwRSxgjljBGLGGMWMIYsYQxIlwehi8mjI2NySqwehASEiLton89Q+bUeVh/fz8XWcj19TX09fXJTk6yIJww3m+Q4BkNLec0hBOm5M01LeCw1HKKSPUchmXkuLg4ajkSFhYGOTk5ssqCkjkMa/2rq6vSBoneoKj09HTZRjDLHKZa2J9IS0uDtrY2atnQY+HgAZdJHzcoWFhbW6M710KxMKkWxFDxxLdjXRHFwnArHw+aKelpOL/h8u2KKJ7D9EDJHIbnwra2trgc0cQjmTExMTA6OuowWpw6ccXNXV7nWfF7d3d34fn5mSLsCCeM984Qfr+W3xBOWEFBAbe3RXAjBTeHDUlc9eB/lYdZ2LCEMWIJY8QSxogljBFLGCOWMEZMzcPy8/Oly2zm5+elyx7NBUQ9YC1CmomVuOqEocJEPXv/lcTERLqTY6iw5uZmSEpKkt4BFxH8u7D4iS+2/oShc5grYM1hjFjCGLGEMQHwNx9XhNz5dajhAAAAAElFTkSuQmCC;" vertex="1" parent="1">
          <mxGeometry x="50" y="810" width="76" height="77" as="geometry" />
        </mxCell>
        <mxCell id="Z2aWivUbkIMFIZujtj76-38" value="" style="shape=image;verticalLabelPosition=bottom;labelBackgroundColor=default;verticalAlign=top;aspect=fixed;imageAspect=0;image=data:image/png,iVBORw0KGgoAAAANSUhEUgAAAEwAAABNCAYAAAAMy4KOAAAAAXNSR0IArs4c6QAAAARnQU1BAACxjwv8YQUAAAAJcEhZcwAADsMAAA7DAcdvqGQAAAUISURBVHhe7ZtJKH1tGMAf85ShFClFKUOGsjatZCFRKCzYUUjILDIWYmFlo2RDlpLYWNpYWAhZGEoylnmevu97zn2+vnsd/M97znnPee/9zq9O97zP4l79vMNznvc9bn/9AwjK0tIS3N/fQ3FxMUXMx50+hcTb2xteX1+pJQbCC3t5eaGWGAgv7O3tjVpiwHUO29nZgbm5OdW95PHxEe7u7iA8PJwiP+Pu7g5RUVFQUVEhieYFN2Eoq7W1FT4/PyliDCkpKTA4OEgt/eEyJA8ODqCzs9NwWcjGxgbd8UF3YcfHx9DS0iLc6qYXug7Jk5MTaGhogIeHB4o4Mjw8DH5+ftTSB8zV8LJnYWGB7vRHN2Gnp6dQX1//oywEFwB/f39q6cPs7CzMzMxQywZPYboMyaOjI6itrf1VlqugWdjh4aHUs76mDtHR0XTnWmgShrIaGxtlsiIjI7ku7WaiWtj5+fm3soKDg2FkZASCgoIo4lqoEnZ5eQl1dXUyWbgCTkxMQGBgIEVcD2ZhFxcX366GKGtyctJwWREREXRnIzU1le74wCQMZTU1NcHV1RVFbISGhsLU1JQpwzAjIwMKCwvBx8dHkoVPGDxRnIfhnIVJ6e3tLUXY4ZGHGY3iHtbR0aFJlqugWBiWirWA5Rc3NzdqOS+qVklWUBbmZr6+vhRxXhTPYSUlJQ4rI25MFBUVUet3sGehLDU97OzsTMr3Pj4+KMIPDw8PyMrKgsrKSorIUS2srKwMSktLqcWHm5sbqKmpkT6NAv+pubm5UFVVRRFHDBmSasDSdFdXl6GyEOw/y8vL1JIjpDBcjTGfwsqtGby/v9OdHOGGJP4GVmzxwf47cI7x8vKilj7s7+9Llz0/1dSEEoZlbZyzsBj5E2YXIYUZkvggX15e/qssERBCGMrCpdy+ByM89xfVYrqwp6cnaf8SS0b2oCwRi5CmCsOd7e7ubtjb26OIDZQ1MDAA8fHxFBEH04Rhz+rt7ZV2yO3BFRB7VkJCAkXEwhRhOGcNDQ3B9vY2RWx4enpKcRF71r8YLgyTwp6eHlhfX6eIDSwAjo+PQ2xsLEXExFBheNaiuroaNjc3KfIf2OswB8vLy3O4RMNQYe3t7cLnWX/CUGH4uKPwweJbzC5ALi4uGitMiywEN1lwrjMD3PhZWVkx9lny63ckJydLlxJwGy87OxsCAgIooh9KniWnp6chMzPTXGFGFCGV4JQP386CJYwRSxgjljBGLGGMWMIYsYQxIlwehi8mjI2NySqwehASEiLton89Q+bUeVh/fz8XWcj19TX09fXJTk6yIJww3m+Q4BkNLec0hBOm5M01LeCw1HKKSPUchmXkuLg4ajkSFhYGOTk5ssqCkjkMa/2rq6vSBoneoKj09HTZRjDLHKZa2J9IS0uDtrY2atnQY+HgAZdJHzcoWFhbW6M710KxMKkWxFDxxLdjXRHFwnArHw+aKelpOL/h8u2KKJ7D9EDJHIbnwra2trgc0cQjmTExMTA6OuowWpw6ccXNXV7nWfF7d3d34fn5mSLsCCeM984Qfr+W3xBOWEFBAbe3RXAjBTeHDUlc9eB/lYdZ2LCEMWIJY8QSxogljBFLGCOWMEZMzcPy8/Oly2zm5+elyx7NBUQ9YC1CmomVuOqEocJEPXv/lcTERLqTY6iw5uZmSEpKkt4BFxH8u7D4iS+2/oShc5grYM1hjFjCGLGEMQHwNx9XhNz5dajhAAAAAElFTkSuQmCC;" vertex="1" parent="1">
          <mxGeometry x="595" y="840" width="76" height="77" as="geometry" />
        </mxCell>
        <mxCell id="Z2aWivUbkIMFIZujtj76-39" value="Code base&lt;br&gt;" style="text;html=1;align=center;verticalAlign=middle;resizable=0;points=[];autosize=1;strokeColor=none;fillColor=none;" vertex="1" parent="1">
          <mxGeometry x="50" y="887" width="80" height="30" as="geometry" />
        </mxCell>
        <mxCell id="Z2aWivUbkIMFIZujtj76-40" value="Code base&lt;br&gt;" style="text;html=1;align=center;verticalAlign=middle;resizable=0;points=[];autosize=1;strokeColor=none;fillColor=none;" vertex="1" parent="1">
          <mxGeometry x="600" y="920" width="80" height="30" as="geometry" />
        </mxCell>
        <mxCell id="Z2aWivUbkIMFIZujtj76-52" value="" style="endArrow=classic;html=1;rounded=0;entryX=0.14;entryY=1.003;entryDx=0;entryDy=0;entryPerimeter=0;" edge="1" parent="1" target="Z2aWivUbkIMFIZujtj76-31">
          <mxGeometry width="50" height="50" relative="1" as="geometry">
            <mxPoint x="130" y="830" as="sourcePoint" />
            <mxPoint x="180" y="780" as="targetPoint" />
          </mxGeometry>
        </mxCell>
        <mxCell id="Z2aWivUbkIMFIZujtj76-53" value="" style="endArrow=classic;html=1;rounded=0;entryX=0.211;entryY=1.027;entryDx=0;entryDy=0;entryPerimeter=0;" edge="1" parent="1" target="Z2aWivUbkIMFIZujtj76-30">
          <mxGeometry width="50" height="50" relative="1" as="geometry">
            <mxPoint x="671" y="837" as="sourcePoint" />
            <mxPoint x="721" y="787" as="targetPoint" />
          </mxGeometry>
        </mxCell>
        <mxCell id="Z2aWivUbkIMFIZujtj76-56" value="" style="endArrow=classic;html=1;rounded=0;" edge="1" parent="1">
          <mxGeometry width="50" height="50" relative="1" as="geometry">
            <mxPoint x="70" y="820" as="sourcePoint" />
            <mxPoint x="65" y="760.5" as="targetPoint" />
          </mxGeometry>
        </mxCell>
        <mxCell id="Z2aWivUbkIMFIZujtj76-57" value="" style="endArrow=classic;html=1;rounded=0;" edge="1" parent="1">
          <mxGeometry width="50" height="50" relative="1" as="geometry">
            <mxPoint x="625" y="840" as="sourcePoint" />
            <mxPoint x="620" y="760" as="targetPoint" />
          </mxGeometry>
        </mxCell>
        <mxCell id="Z2aWivUbkIMFIZujtj76-58" value="" style="shape=image;verticalLabelPosition=bottom;labelBackgroundColor=default;verticalAlign=top;aspect=fixed;imageAspect=0;image=data:image/png,iVBORw0KGgoAAAANSUhEUgAAAGQAAABjCAYAAABt56XsAAAAAXNSR0IArs4c6QAAAARnQU1BAACxjwv8YQUAAAAJcEhZcwAADsMAAA7DAcdvqGQAAAecSURBVHhe7ZtNaBtHFMefZMtKYjfQ4FQNLq4qQ2hLyUG0B7fgGh2aSxA+5FBD8cGgQ246tfTS6lwo1a0Qgw+C4h5KK3QrLaoxBB9aVHoJDSSq6uAmm4QkdeLYlmy57+3MrEarLyuJ8dvt/IzQ7Id338x/3sdM4sA+AgY2BOW3gQlGEGYYQZhhBGGGEYQZRhBmGEGYYQRhhhGEGUYQZrDZOtm89gtsXv1JHj0fAqFjcPrCZ/LIGxgPYYYnBQkeG5Et/+EpQQIDQzB48mXYr1Vh4MQp++M3PCVIMDwCuxu3YX+vCntP7kNgcEhe8Q/eEmT4RQidnoDQqXEYfvMDedZfeEqQ/Z1N2HtkQX37MVTv3pBn/YW3cgiGKMob+/UqDA6fgr1NDFuYV/yEpwSBgRAcn5iE4bPTED7zBq4zUCAUxk94RhDKG8HBsP1RIoRGJ+wkT5WXX/CEILTuoLwRfuWcPCMIn3nd/t7frfomdHlDkKERu8IKuspc8haquqgEppLYD3hCEErmnQZ88GTE9iC/rEnYC9Jrm6R660+xcse84octFdaCqK2R2v012NuwYOvmH/axovbvbdkC2Ll11RdbKawFqe88tpM5QWsO2KvZbaKOibz+5IGdP2grhaC210Xh7SHaGoMGvfZgDTavX4Gtym/wqPQ9es5NeVWENkr+JIqXYS0IJWpaf9BHL2urd67bSd5Zj2ClFQgO2WsSr8NaEMod6kMC0KDX7t5wdnspb9CicBc9xeueoWAtiA4NeLtBV9vxfsEzgvxfYPOfHGr3/uq5pb77cB12bl8TB8EBGD77vmh3IDAQghM97uGGp/5gp17bgfs/f4Wl8Aa8cO4CHJ94V17xD54KWcFQGE6+fRFCo6/5UgzCk3/SZu/u+mTvys2RC0Kv//3vG1C5dwe2a8+3WhoaDMHFd96TR97gSAUhAT7/4Ru4+k9jxf08GQ6H4dtLn8gjb3CkOSR3pXhoYhAB/PEaR+Yh9XodPrr8JTza3rKPz78Vh1dHT8Pl5R/tYyI6+pId0vrB2niInic2IY2H9MEWhislBkHhq92MDgTwbB8fHTwjW97hyDxkc2cbPvz6C3l0OIyEj8HSpY/lkTcwWyfMODIPqe7W4Ltfr8ijw8GUvYZnxoQsZhhBmGEEYYYRhBlGEGa4qqwiZJJZKGErni5AJiHO6uchMgPZhXmI2eeRYgaSWbziPt+WTs8/OMVMEuh1ishMFhbmu7/VS7g8JArjEdFar5RFgyhXYF02wVqFZe1ScUWOzli0hxjPjlsMwsqnIbWoGeRxXILEIDomWtZaRTSQ8vIqWLKNV6BxqQwVqVRkPCoah0V5EZakGORdhUIBsjNi9lj5HPqeP2jJIYmpuGiUVmQny7C8KuSIRMQAlFZU9yuwZl+KwOS09A8cuFQyCUn1yXQaKgpfjfsOPssjoLSPzc+CsHYddIfuaoNzLQWZTEreg+1PxL3NdjRs1B9Bnuo8G39X/xXnWibT6F/HMWilNalHx7HLhOqkGvQ4zH46Ka6tV1AmpLgi8gqMQZT0oHySzmvehJSykEwtivs1SlmZkyQ9Q08sim8hLMinVScTkEFPKRQWwEkjB7bBglJJ3TUGU+eFtNbqcuM+p39xmLLzXRkWU+6wKexpGfNSyelfP9GjVRCt43ZoUkZFxnHQp2GSFJF5pKziVXwKhwaNlTFFhZRCIQt2VLHykHMbTEWAfU8B0tIpu4ceHHx1I0GDbM/AjPY7fdoQT8t7MpBITAlv03Kkyo+RmTl8O53IQZ401GwvSJtKS27BIzCTFff0U3S0CoKvVlGLErtj1OQ0ZhiVYyxYRasrwnXEDCgvg4xsOFbSVZNp0QGkqUhA4rONiiwxN+Pyyg4kMo0BdihBVoWNvmzAAZvTyzzVb9E3HH0QXW+EY6eAQXHTKhwpd7HWMJZoxGcbXtsHbQShqCV6bK3mYMV2goZRKsdYa8tOQh+z41V39CKBntfkxY5XHoQYzC80z058OuRbpn8rzTa04vSNwpYTGSZBpcfu9JhMB2RQfjcRm8Zckcc4bKk4KHMEQa6Ns6JUykPePiHjq2MMuaoW05tQgybDobpHL6s7UF5MQZqmur7eQY/JVuT5JrrYgEm9I6pvGLZyK+KUiAwuKNR1WET1nhbdaeshLTPWzhGKxlrFhnILfav80jRb21cphB5zizmZhLvMxphTj+u5oAg5XYw+bWglAXMi4ciEr1WPSKMCXXIqK5ooduhqU7g8De0FcQ16XJQYkhhMi14LnAUhhpJZZbBKuI3VfVO4JrQ4rMJw29moSMw5uaORH1SlpvJBnza0wY4Ost0yQRwbZKWHz1feqefEZ6GDIPqgu+I9ohvdJBYlXb0SIvQQoxFPp+UaQtB7C0TkDvfj8UmQ1svePmxoi+NlpId7gpAN7qKC+vJ020DtMP9iyIwOHmI4KowgzDCCMMMIwgwjCDOMIMwwgjDDCMIMIwgzjCDMMIIwwwjCDCMIM4wgzDCCMMMIwgwjCDOMIMwwgjDDCMIMIwgzjCDMMIIwwwjCDCMIM4wgzDCCMMMIwgwjCDOMIMwwgjDDCMIMIwgzjCDMMIIwwwjCCoD/AMLJN+yZpwhGAAAAAElFTkSuQmCC;" vertex="1" parent="1">
          <mxGeometry x="-92" y="810" width="100" height="99" as="geometry" />
        </mxCell>
        <mxCell id="Z2aWivUbkIMFIZujtj76-59" value="" style="shape=image;verticalLabelPosition=bottom;labelBackgroundColor=default;verticalAlign=top;aspect=fixed;imageAspect=0;image=data:image/png,iVBORw0KGgoAAAANSUhEUgAAAGQAAABjCAYAAABt56XsAAAAAXNSR0IArs4c6QAAAARnQU1BAACxjwv8YQUAAAAJcEhZcwAADsMAAA7DAcdvqGQAAAecSURBVHhe7ZtNaBtHFMefZMtKYjfQ4FQNLq4qQ2hLyUG0B7fgGh2aSxA+5FBD8cGgQ246tfTS6lwo1a0Qgw+C4h5KK3QrLaoxBB9aVHoJDSSq6uAmm4QkdeLYlmy57+3MrEarLyuJ8dvt/IzQ7Id338x/3sdM4sA+AgY2BOW3gQlGEGYYQZhhBGGGEYQZRhBmGEGYYQRhhhGEGUYQZrDZOtm89gtsXv1JHj0fAqFjcPrCZ/LIGxgPYYYnBQkeG5Et/+EpQQIDQzB48mXYr1Vh4MQp++M3PCVIMDwCuxu3YX+vCntP7kNgcEhe8Q/eEmT4RQidnoDQqXEYfvMDedZfeEqQ/Z1N2HtkQX37MVTv3pBn/YW3cgiGKMob+/UqDA6fgr1NDFuYV/yEpwSBgRAcn5iE4bPTED7zBq4zUCAUxk94RhDKG8HBsP1RIoRGJ+wkT5WXX/CEILTuoLwRfuWcPCMIn3nd/t7frfomdHlDkKERu8IKuspc8haquqgEppLYD3hCEErmnQZ88GTE9iC/rEnYC9Jrm6R660+xcse84octFdaCqK2R2v012NuwYOvmH/axovbvbdkC2Ll11RdbKawFqe88tpM5QWsO2KvZbaKOibz+5IGdP2grhaC210Xh7SHaGoMGvfZgDTavX4Gtym/wqPQ9es5NeVWENkr+JIqXYS0IJWpaf9BHL2urd67bSd5Zj2ClFQgO2WsSr8NaEMod6kMC0KDX7t5wdnspb9CicBc9xeueoWAtiA4NeLtBV9vxfsEzgvxfYPOfHGr3/uq5pb77cB12bl8TB8EBGD77vmh3IDAQghM97uGGp/5gp17bgfs/f4Wl8Aa8cO4CHJ94V17xD54KWcFQGE6+fRFCo6/5UgzCk3/SZu/u+mTvys2RC0Kv//3vG1C5dwe2a8+3WhoaDMHFd96TR97gSAUhAT7/4Ru4+k9jxf08GQ6H4dtLn8gjb3CkOSR3pXhoYhAB/PEaR+Yh9XodPrr8JTza3rKPz78Vh1dHT8Pl5R/tYyI6+pId0vrB2niInic2IY2H9MEWhislBkHhq92MDgTwbB8fHTwjW97hyDxkc2cbPvz6C3l0OIyEj8HSpY/lkTcwWyfMODIPqe7W4Ltfr8ijw8GUvYZnxoQsZhhBmGEEYYYRhBlGEGa4qqwiZJJZKGErni5AJiHO6uchMgPZhXmI2eeRYgaSWbziPt+WTs8/OMVMEuh1ishMFhbmu7/VS7g8JArjEdFar5RFgyhXYF02wVqFZe1ScUWOzli0hxjPjlsMwsqnIbWoGeRxXILEIDomWtZaRTSQ8vIqWLKNV6BxqQwVqVRkPCoah0V5EZakGORdhUIBsjNi9lj5HPqeP2jJIYmpuGiUVmQny7C8KuSIRMQAlFZU9yuwZl+KwOS09A8cuFQyCUn1yXQaKgpfjfsOPssjoLSPzc+CsHYddIfuaoNzLQWZTEreg+1PxL3NdjRs1B9Bnuo8G39X/xXnWibT6F/HMWilNalHx7HLhOqkGvQ4zH46Ka6tV1AmpLgi8gqMQZT0oHySzmvehJSykEwtivs1SlmZkyQ9Q08sim8hLMinVScTkEFPKRQWwEkjB7bBglJJ3TUGU+eFtNbqcuM+p39xmLLzXRkWU+6wKexpGfNSyelfP9GjVRCt43ZoUkZFxnHQp2GSFJF5pKziVXwKhwaNlTFFhZRCIQt2VLHykHMbTEWAfU8B0tIpu4ceHHx1I0GDbM/AjPY7fdoQT8t7MpBITAlv03Kkyo+RmTl8O53IQZ401GwvSJtKS27BIzCTFff0U3S0CoKvVlGLErtj1OQ0ZhiVYyxYRasrwnXEDCgvg4xsOFbSVZNp0QGkqUhA4rONiiwxN+Pyyg4kMo0BdihBVoWNvmzAAZvTyzzVb9E3HH0QXW+EY6eAQXHTKhwpd7HWMJZoxGcbXtsHbQShqCV6bK3mYMV2goZRKsdYa8tOQh+z41V39CKBntfkxY5XHoQYzC80z058OuRbpn8rzTa04vSNwpYTGSZBpcfu9JhMB2RQfjcRm8Zckcc4bKk4KHMEQa6Ns6JUykPePiHjq2MMuaoW05tQgybDobpHL6s7UF5MQZqmur7eQY/JVuT5JrrYgEm9I6pvGLZyK+KUiAwuKNR1WET1nhbdaeshLTPWzhGKxlrFhnILfav80jRb21cphB5zizmZhLvMxphTj+u5oAg5XYw+bWglAXMi4ciEr1WPSKMCXXIqK5ooduhqU7g8De0FcQ16XJQYkhhMi14LnAUhhpJZZbBKuI3VfVO4JrQ4rMJw29moSMw5uaORH1SlpvJBnza0wY4Ost0yQRwbZKWHz1feqefEZ6GDIPqgu+I9ohvdJBYlXb0SIvQQoxFPp+UaQtB7C0TkDvfj8UmQ1svePmxoi+NlpId7gpAN7qKC+vJ020DtMP9iyIwOHmI4KowgzDCCMMMIwgwjCDOMIMwwgjDDCMIMIwgzjCDMMIIwwwjCDCMIM4wgzDCCMMMIwgwjCDOMIMwwgjDDCMIMIwgzjCDMMIIwwwjCDCMIM4wgzDCCMMMIwgwjCDOMIMwwgjDDCMIMIwgzjCDMMIIwwwjCCoD/AMLJN+yZpwhGAAAAAElFTkSuQmCC;" vertex="1" parent="1">
          <mxGeometry x="470" y="810" width="100" height="99" as="geometry" />
        </mxCell>
      </root>
    </mxGraphModel>
  </diagram>
</mxfile>
